<svg width="64" height="68" viewBox="0 0 64 68" fill="none" xmlns="http://www.w3.org/2000/svg">
<rect width="64" height="64" rx="24" fill="#FFF1F2"/>
<path d="M23.75 45.491C22.625 45.491 21.5125 45.216 20.4125 44.666C19.3125 44.116 18.425 43.391 17.75 42.491C18.4 42.491 19.0625 42.2348 19.7375 41.7223C20.4125 41.2098 20.75 40.466 20.75 39.491C20.75 38.241 21.1875 37.1785 22.0625 36.3035C22.9375 35.4285 24 34.991 25.25 34.991C26.5 34.991 27.5625 35.4285 28.4375 36.3035C29.3125 37.1785 29.75 38.241 29.75 39.491C29.75 41.141 29.1625 42.5535 27.9875 43.7285C26.8125 44.9035 25.4 45.491 23.75 45.491ZM32.375 36.491L28.25 32.366L41.675 18.941C41.95 18.666 42.2937 18.5223 42.7062 18.5098C43.1187 18.4973 43.475 18.641 43.775 18.941L45.8 20.966C46.1 21.266 46.25 21.616 46.25 22.016C46.25 22.416 46.1 22.766 45.8 23.066L32.375 36.491Z" fill="#E11D48"/>
</svg>
