<svg width="55" height="55" viewBox="0 0 55 55" fill="none" xmlns="http://www.w3.org/2000/svg">
<g clip-path="url(#clip0_2_272)">
<path d="M12.3454 18.9585C11.8549 19.9796 11.5801 21.124 11.5801 22.3326C11.5801 26.6417 15.0733 30.135 19.3825 30.135C23.6916 30.135 27.1848 26.6417 27.1848 22.3326C27.1848 18.0235 23.6916 14.5302 19.3825 14.5302C17.5185 14.5302 15.8071 15.1839 14.4651 16.2745" stroke="#28B446" stroke-width="1.61133" stroke-miterlimit="10" stroke-linecap="round" stroke-linejoin="round"/>
<path d="M31.6373 35.7045C28.6271 32.2584 24.2105 30.1347 19.3822 30.1347H17.8483C11.0964 30.1347 5.25626 34.8384 3.81767 41.4353C3.39078 43.3929 4.88179 45.2442 6.88553 45.2442H21.0032M51.6858 40.8324H49.0411M51.6858 45.2864H49.0411M51.6858 49.7404H49.0411M20.192 1.07257L21.5716 3.39299C21.6095 3.45674 21.66 3.51209 21.72 3.55568C21.78 3.59927 21.8483 3.63017 21.9206 3.6465L24.5539 4.24151C24.9578 4.33282 25.1171 4.82299 24.8439 5.13419L23.0634 7.16339C23.0145 7.21914 22.9774 7.28426 22.9545 7.35479C22.9316 7.42532 22.9233 7.49978 22.9301 7.57363L23.1778 10.2619C23.2158 10.6743 22.7988 10.9772 22.4184 10.8136L19.9384 9.74731C19.8702 9.71802 19.7968 9.70292 19.7227 9.70292C19.6485 9.70292 19.5751 9.71802 19.507 9.74731L17.0269 10.8137C16.6464 10.9773 16.2295 10.6744 16.2675 10.262L16.5153 7.57374C16.5221 7.49989 16.5137 7.42543 16.4908 7.3549C16.4679 7.28437 16.4309 7.21924 16.3819 7.16349L14.6014 5.1343C14.3283 4.82299 14.4876 4.33282 14.8915 4.24162L17.5247 3.64661C17.597 3.63026 17.6653 3.59935 17.7253 3.55576C17.7853 3.51218 17.8358 3.45683 17.8737 3.39309L19.2533 1.07267C19.465 0.716679 19.9804 0.716678 20.192 1.07257ZM5.77898 2.84374L6.90895 4.74425C6.94 4.79645 6.98136 4.84179 7.0305 4.87749C7.07965 4.91319 7.13555 4.9385 7.1948 4.95189L9.3514 5.43927C9.68226 5.51403 9.81267 5.91547 9.58902 6.17038L8.13066 7.8323C8.09059 7.87796 8.06025 7.9313 8.04148 7.98907C8.02272 8.04684 8.01592 8.10783 8.02152 8.16832L8.22444 10.37C8.25559 10.7078 7.9141 10.9559 7.60247 10.822L5.57123 9.94862C5.51541 9.92465 5.45531 9.91229 5.39457 9.91229C5.33383 9.91229 5.27372 9.92465 5.21791 9.94862L3.18667 10.822C2.87504 10.9559 2.53355 10.7079 2.5647 10.37L2.76762 8.16832C2.77319 8.10784 2.76639 8.04685 2.74762 7.98908C2.72886 7.93131 2.69853 7.87797 2.65848 7.8323L1.20023 6.17038C0.976469 5.91547 1.10699 5.51403 1.43785 5.43927L3.59445 4.95189C3.6537 4.9385 3.7096 4.91319 3.75874 4.87749C3.80789 4.84179 3.84925 4.79645 3.8803 4.74425L5.01027 2.84374C5.18354 2.5522 5.60571 2.5522 5.77898 2.84374ZM32.9614 2.84374L31.8315 4.74425C31.8004 4.79645 31.7591 4.84179 31.7099 4.87749C31.6608 4.91319 31.6049 4.9385 31.5456 4.95189L29.389 5.43927C29.0582 5.51403 28.9277 5.91547 29.1514 6.17038L30.6097 7.8323C30.6497 7.87796 30.6801 7.9313 30.6988 7.98907C30.7176 8.04684 30.7244 8.10783 30.7188 8.16832L30.5159 10.37C30.4847 10.7078 30.8262 10.9559 31.1378 10.822L33.1691 9.94862C33.2249 9.92465 33.285 9.91229 33.3457 9.91229C33.4065 9.91229 33.4666 9.92465 33.5224 9.94862L35.5536 10.822C35.8653 10.9559 36.2068 10.7079 36.1756 10.37L35.9727 8.16832C35.9671 8.10784 35.9739 8.04685 35.9927 7.98908C36.0115 7.93131 36.0418 7.87797 36.0818 7.8323L37.5401 6.17038C37.7638 5.91547 37.6333 5.51403 37.3025 5.43927L35.1459 4.95189C35.0866 4.9385 35.0307 4.91319 34.9816 4.87749C34.9324 4.84179 34.8911 4.79645 34.86 4.74425L33.73 2.84374C33.5569 2.5522 33.1347 2.5522 32.9614 2.84374ZM53.9129 38.6054C53.9129 37.3756 52.9158 36.3785 51.6859 36.3785L43.5919 36.366C42.5314 36.3644 41.6725 35.5042 41.6725 34.4437V28.6927C41.6725 28.1091 41.5246 27.535 41.2427 27.024C40.9607 26.513 40.5538 26.0818 40.0601 25.7707C39.2589 25.2658 38.1964 25.6695 37.9302 26.5784L34.7137 37.5615C34.1983 39.3214 32.5842 40.5307 30.7503 40.5307H28.5503V52.0195H31.953C33.7526 52.0195 35.5427 52.3589 37.1931 53.0765C38.8362 53.7909 40.6088 54.1596 42.4005 54.1596L51.6858 54.1944C52.9158 54.1944 53.9128 53.1974 53.9128 51.9674C53.9128 50.7376 52.9157 49.7405 51.6858 49.7405C52.9158 49.7405 53.9128 48.7434 53.9128 47.5135C53.9128 46.2835 52.9157 45.2865 51.6858 45.2865C52.9158 45.2865 53.9128 44.2895 53.9128 43.0596C53.9128 41.8297 52.9157 40.8326 51.6858 40.8326C52.9158 40.8324 53.9129 39.8353 53.9129 38.6054Z" stroke="#28B446" stroke-width="1.61133" stroke-miterlimit="10" stroke-linecap="round" stroke-linejoin="round"/>
<path d="M27.6668 53.7342H22.3382C22.1038 53.7342 21.8791 53.6411 21.7133 53.4754C21.5476 53.3096 21.4545 53.0848 21.4545 52.8504V39.2648C21.4545 39.0304 21.5476 38.8056 21.7133 38.6399C21.8791 38.4742 22.1038 38.381 22.3382 38.381H27.6668C27.9012 38.381 28.126 38.4742 28.2917 38.6399C28.4574 38.8056 28.5505 39.0304 28.5505 39.2648V52.8504C28.5505 53.0848 28.4574 53.3096 28.2917 53.4754C28.126 53.6411 27.9012 53.7342 27.6668 53.7342Z" stroke="#28B446" stroke-width="1.61133" stroke-miterlimit="10" stroke-linecap="round" stroke-linejoin="round"/>
</g>
<defs>
<clipPath id="clip0_2_272">
<rect width="55" height="55" fill="white"/>
</clipPath>
</defs>
</svg>
