<svg width="25" height="30" viewBox="0 0 25 30" fill="none" xmlns="http://www.w3.org/2000/svg">
<path d="M23.1375 10.425L17.85 5.1375L14.6625 8.2875L11.475 5.1375L15.7125 0.8625C16.0125 0.5625 16.35 0.34375 16.725 0.20625C17.1 0.06875 17.475 0 17.85 0C18.25 0 18.6313 0.06875 18.9937 0.20625C19.3562 0.34375 19.675 0.5625 19.95 0.8625L23.1375 4.05C23.5875 4.475 23.9188 4.96875 24.1313 5.53125C24.3438 6.09375 24.45 6.6625 24.45 7.2375C24.45 7.8125 24.3438 8.375 24.1313 8.925C23.9188 9.475 23.5875 9.975 23.1375 10.425ZM2.475 17.325C2.025 16.875 1.8 16.3438 1.8 15.7312C1.8 15.1187 2.025 14.5875 2.475 14.1375L6.15 10.425L9.3375 13.6125L5.625 17.325C5.2 17.775 4.68125 18 4.06875 18C3.45625 18 2.925 17.775 2.475 17.325ZM0.8625 28.4625C0.5875 28.1625 0.375 27.8312 0.225 27.4688C0.075 27.1063 0 26.725 0 26.325C0 25.925 0.06875 25.5437 0.20625 25.1812C0.34375 24.8188 0.5625 24.4875 0.8625 24.1875L11.475 13.6125L6.7125 8.8125C6.2625 8.3875 6.0375 7.86875 6.0375 7.25625C6.0375 6.64375 6.2625 6.1125 6.7125 5.6625C7.1375 5.2125 7.6625 4.9875 8.2875 4.9875C8.9125 4.9875 9.45 5.2125 9.9 5.6625L14.6625 10.425L16.8 8.2875L21 12.5625C21.3 12.8625 21.45 13.2125 21.45 13.6125C21.45 14.0125 21.3 14.3625 21 14.6625C20.7 14.9625 20.35 15.1125 19.95 15.1125C19.55 15.1125 19.2 14.9625 18.9 14.6625L5.1 28.4625C4.8 28.7625 4.46875 28.9812 4.10625 29.1187C3.74375 29.2563 3.375 29.325 3 29.325C2.625 29.325 2.25 29.25 1.875 29.1C1.5 28.95 1.1625 28.7375 0.8625 28.4625Z" fill="#0284C7"/>
</svg>
