<svg width="55" height="55" viewBox="0 0 55 55" fill="none" xmlns="http://www.w3.org/2000/svg">
<path d="M12.0629 18.9585C11.5724 19.9796 11.2976 21.124 11.2976 22.3326C11.2976 26.6417 14.7909 30.135 19.1 30.135C23.4091 30.135 26.9024 26.6417 26.9024 22.3326C26.9024 18.0235 23.4091 14.5302 19.1 14.5302C17.236 14.5302 15.5247 15.1839 14.1826 16.2745" stroke="#28B446" stroke-width="1.61133" stroke-miterlimit="10" stroke-linecap="round" stroke-linejoin="round"/>
<path d="M31.3548 35.7045C28.3446 32.2584 23.9281 30.1347 19.0998 30.1347H17.5658C10.8139 30.1347 4.97379 34.8384 3.5352 41.4353C3.10831 43.3929 4.59932 45.2442 6.60306 45.2442H20.7208M51.4034 40.8324H48.7586M51.4034 45.2864H48.7586M51.4034 49.7404H48.7586M19.9095 1.07257L21.2891 3.39299C21.327 3.45674 21.3775 3.51209 21.4375 3.55568C21.4975 3.59927 21.5658 3.63017 21.6381 3.6465L24.2714 4.24151C24.6753 4.33282 24.8346 4.82299 24.5614 5.13419L22.7809 7.16339C22.732 7.21914 22.695 7.28426 22.672 7.35479C22.6491 7.42532 22.6408 7.49978 22.6476 7.57363L22.8953 10.2619C22.9333 10.6743 22.5163 10.9772 22.1359 10.8136L19.6559 9.74731C19.5878 9.71802 19.5144 9.70292 19.4402 9.70292C19.366 9.70292 19.2926 9.71802 19.2245 9.74731L16.7444 10.8137C16.3639 10.9773 15.947 10.6744 15.9851 10.262L16.2328 7.57374C16.2396 7.49989 16.2313 7.42543 16.2083 7.3549C16.1854 7.28437 16.1484 7.21924 16.0995 7.16349L14.319 5.1343C14.0458 4.82299 14.2051 4.33282 14.609 4.24162L17.2422 3.64661C17.3146 3.63026 17.3828 3.59935 17.4428 3.55576C17.5028 3.51218 17.5533 3.45683 17.5912 3.39309L18.9709 1.07267C19.1825 0.716679 19.6979 0.716678 19.9095 1.07257ZM5.49651 2.84374L6.62648 4.74425C6.65753 4.79645 6.69889 4.84179 6.74803 4.87749C6.79718 4.91319 6.85308 4.9385 6.91233 4.95189L9.06893 5.43927C9.39979 5.51403 9.5302 5.91547 9.30655 6.17038L7.84819 7.8323C7.80812 7.87796 7.77778 7.9313 7.75901 7.98907C7.74025 8.04684 7.73345 8.10783 7.73905 8.16832L7.94197 10.37C7.97312 10.7078 7.63163 10.9559 7.31999 10.822L5.28875 9.94862C5.23294 9.92465 5.17284 9.91229 5.1121 9.91229C5.05136 9.91229 4.99125 9.92465 4.93544 9.94862L2.9042 10.822C2.59257 10.9559 2.25108 10.7079 2.28223 10.37L2.48515 8.16832C2.49072 8.10784 2.48392 8.04685 2.46515 7.98908C2.44639 7.93131 2.41606 7.87797 2.37601 7.8323L0.917758 6.17038C0.693999 5.91547 0.824516 5.51403 1.15538 5.43927L3.31198 4.95189C3.37123 4.9385 3.42713 4.91319 3.47627 4.87749C3.52542 4.84179 3.56678 4.79645 3.59783 4.74425L4.7278 2.84374C4.90107 2.5522 5.32324 2.5522 5.49651 2.84374ZM32.679 2.84374L31.549 4.74425C31.5179 4.79645 31.4766 4.84179 31.4274 4.87749C31.3783 4.91319 31.3224 4.9385 31.2632 4.95189L29.1065 5.43927C28.7757 5.51403 28.6453 5.91547 28.8689 6.17038L30.3272 7.8323C30.3673 7.87796 30.3976 7.9313 30.4164 7.98907C30.4351 8.04684 30.4419 8.10783 30.4363 8.16832L30.2334 10.37C30.2022 10.7078 30.5437 10.9559 30.8554 10.822L32.8866 9.94862C32.9424 9.92465 33.0025 9.91229 33.0633 9.91229C33.124 9.91229 33.1841 9.92465 33.2399 9.94862L35.2712 10.822C35.5828 10.9559 35.9243 10.7079 35.8931 10.37L35.6902 8.16832C35.6847 8.10784 35.6915 8.04685 35.7102 7.98908C35.729 7.93131 35.7593 7.87797 35.7994 7.8323L37.2576 6.17038C37.4814 5.91547 37.3509 5.51403 37.02 5.43927L34.8634 4.95189C34.8041 4.9385 34.7482 4.91319 34.6991 4.87749C34.65 4.84179 34.6086 4.79645 34.5775 4.74425L33.4476 2.84374C33.2744 2.5522 32.8522 2.5522 32.679 2.84374ZM53.6304 38.6054C53.6304 37.3756 52.6333 36.3785 51.4035 36.3785L43.3094 36.366C42.249 36.3644 41.39 35.5042 41.39 34.4437V28.6927C41.39 28.1091 41.2422 27.535 40.9602 27.024C40.6782 26.513 40.2714 26.0818 39.7776 25.7707C38.9765 25.2658 37.914 25.6695 37.6478 26.5784L34.4312 37.5615C33.9158 39.3214 32.3017 40.5307 30.4678 40.5307H28.2678V52.0195H31.6705C33.4701 52.0195 35.2602 52.3589 36.9106 53.0765C38.5538 53.7909 40.3263 54.1596 42.118 54.1596L51.4034 54.1944C52.6333 54.1944 53.6303 53.1974 53.6303 51.9674C53.6303 50.7376 52.6332 49.7405 51.4034 49.7405C52.6333 49.7405 53.6303 48.7434 53.6303 47.5135C53.6303 46.2835 52.6332 45.2865 51.4034 45.2865C52.6333 45.2865 53.6303 44.2895 53.6303 43.0596C53.6303 41.8297 52.6332 40.8326 51.4034 40.8326C52.6333 40.8324 53.6304 39.8353 53.6304 38.6054Z" stroke="#28B446" stroke-width="1.61133" stroke-miterlimit="10" stroke-linecap="round" stroke-linejoin="round"/>
<path d="M27.3843 53.7342H22.0558C21.8214 53.7342 21.5966 53.6411 21.4308 53.4754C21.2651 53.3096 21.172 53.0848 21.172 52.8504V39.2648C21.172 39.0304 21.2651 38.8056 21.4308 38.6399C21.5966 38.4742 21.8214 38.381 22.0558 38.381H27.3843C27.6187 38.381 27.8435 38.4742 28.0092 38.6399C28.175 38.8056 28.2681 39.0304 28.2681 39.2648V52.8504C28.2681 53.0848 28.175 53.3096 28.0092 53.4754C27.8435 53.6411 27.6187 53.7342 27.3843 53.7342Z" stroke="#28B446" stroke-width="1.61133" stroke-miterlimit="10" stroke-linecap="round" stroke-linejoin="round"/>
</svg>
