<svg width="64" height="64" viewBox="0 0 64 64" fill="none" xmlns="http://www.w3.org/2000/svg">
<rect width="64" height="64" rx="24" fill="#FEFCE8"/>
<path d="M32 47C31.175 47 30.4688 46.7062 29.8813 46.1187C29.2938 45.5312 29 44.825 29 44H35C35 44.825 34.7062 45.5312 34.1187 46.1187C33.5312 46.7062 32.825 47 32 47ZM27.5 42.5C27.075 42.5 26.7188 42.3563 26.4313 42.0688C26.1438 41.7812 26 41.425 26 41C26 40.575 26.1438 40.2188 26.4313 39.9312C26.7188 39.6437 27.075 39.5 27.5 39.5H36.5C36.925 39.5 37.2812 39.6437 37.5688 39.9312C37.8563 40.2188 38 40.575 38 41C38 41.425 37.8563 41.7812 37.5688 42.0688C37.2812 42.3563 36.925 42.5 36.5 42.5H27.5ZM26.375 38C24.65 36.975 23.2812 35.6 22.2687 33.875C21.2562 32.15 20.75 30.275 20.75 28.25C20.75 25.125 21.8438 22.4688 24.0312 20.2812C26.2188 18.0938 28.875 17 32 17C35.125 17 37.7812 18.0938 39.9688 20.2812C42.1562 22.4688 43.25 25.125 43.25 28.25C43.25 30.275 42.7438 32.15 41.7313 33.875C40.7188 35.6 39.35 36.975 37.625 38H26.375Z" fill="#EAB308"/>
</svg>
