<svg width="23" height="30" viewBox="0 0 23 30" fill="none" xmlns="http://www.w3.org/2000/svg">
<path d="M11.25 30C10.425 30 9.71875 29.7062 9.13125 29.1187C8.54375 28.5312 8.25 27.825 8.25 27H14.25C14.25 27.825 13.9562 28.5312 13.3687 29.1187C12.7812 29.7062 12.075 30 11.25 30ZM6.75 25.5C6.325 25.5 5.96875 25.3563 5.68125 25.0688C5.39375 24.7812 5.25 24.425 5.25 24C5.25 23.575 5.39375 23.2188 5.68125 22.9312C5.96875 22.6437 6.325 22.5 6.75 22.5H15.75C16.175 22.5 16.5312 22.6437 16.8188 22.9312C17.1063 23.2188 17.25 23.575 17.25 24C17.25 24.425 17.1063 24.7812 16.8188 25.0688C16.5312 25.3563 16.175 25.5 15.75 25.5H6.75ZM5.625 21C3.9 19.975 2.53125 18.6 1.51875 16.875C0.50625 15.15 0 13.275 0 11.25C0 8.125 1.09375 5.46875 3.28125 3.28125C5.46875 1.09375 8.125 0 11.25 0C14.375 0 17.0312 1.09375 19.2188 3.28125C21.4062 5.46875 22.5 8.125 22.5 11.25C22.5 13.275 21.9938 15.15 20.9813 16.875C19.9688 18.6 18.6 19.975 16.875 21H5.625Z" fill="#EAB308"/>
</svg>
