<svg width="146" height="146" viewBox="0 0 146 146" fill="none" xmlns="http://www.w3.org/2000/svg">
<rect x="0.5" y="0.5" width="145" height="145" rx="31.5" fill="#FAF5FF"/>
<rect x="0.5" y="0.5" width="145" height="145" rx="31.5" stroke="#F3E8FF"/>
<path d="M71.8047 24.8896L61.2578 29.5303C60.2031 30.0225 59.5 31.1475 59.5 32.2725V39.374C59.5 47.6709 65.2656 55.4756 73 57.374C80.7344 55.4756 86.5 47.6709 86.5 39.374V32.2725C86.5 31.1475 85.7969 30.0225 84.7422 29.5303L74.1953 24.8896C73.4219 24.5381 72.5781 24.5381 71.8047 24.8896ZM68.9219 47.3193L65.0547 43.3818C64.4922 42.8193 64.4922 41.9053 65.0547 41.2725C65.6172 40.71 66.6016 40.71 67.1641 41.2725L69.9766 44.085L78.8359 35.2959C79.3984 34.7334 80.3828 34.7334 80.9453 35.2959C81.5078 35.8584 81.5078 36.8428 80.9453 37.4053L71.0312 47.3193C70.4688 47.8818 69.5547 47.8818 68.9219 47.3193Z" fill="#A855F7"/>
<path d="M34.4408 86.374C33.4208 86.374 32.5808 86.212 31.9208 85.888C31.2608 85.564 30.7688 85.072 30.4448 84.412C30.1328 83.752 29.9768 82.918 29.9768 81.91C29.9768 80.902 30.1328 80.062 30.4448 79.39C30.7688 78.706 31.2608 78.196 31.9208 77.86C32.5808 77.512 33.4208 77.338 34.4408 77.338H38.5088V85.24H36.0968V78.904L36.6908 79.426H34.4408C33.9488 79.426 33.5528 79.486 33.2528 79.606C32.9528 79.714 32.7308 79.948 32.5868 80.308C32.4548 80.656 32.3888 81.19 32.3888 81.91C32.3888 82.594 32.4488 83.11 32.5688 83.458C32.7008 83.794 32.9168 84.016 33.2168 84.124C33.5168 84.232 33.9248 84.286 34.4408 84.286H40.3988V86.374H34.4408ZM40.3988 86.374V84.286C40.4708 84.286 40.5248 84.31 40.5608 84.358C40.6088 84.406 40.6448 84.478 40.6688 84.574C40.7048 84.67 40.7288 84.784 40.7408 84.916C40.7528 85.036 40.7588 85.174 40.7588 85.33C40.7588 85.486 40.7528 85.63 40.7408 85.762C40.7288 85.894 40.7048 86.008 40.6688 86.104C40.6448 86.188 40.6088 86.254 40.5608 86.302C40.5248 86.35 40.4708 86.374 40.3988 86.374ZM45.6574 86.374V84.286H47.9074V86.374H45.6574ZM47.9074 86.374V84.286C47.9674 84.286 48.0214 84.31 48.0694 84.358C48.1174 84.406 48.1534 84.478 48.1774 84.574C48.2014 84.67 48.2194 84.784 48.2314 84.916C48.2554 85.036 48.2674 85.174 48.2674 85.33C48.2674 85.486 48.2554 85.63 48.2314 85.762C48.2194 85.894 48.2014 86.008 48.1774 86.104C48.1534 86.188 48.1174 86.254 48.0694 86.302C48.0334 86.35 47.9794 86.374 47.9074 86.374ZM40.4014 86.374C40.3294 86.374 40.2754 86.35 40.2394 86.302C40.1914 86.254 40.1554 86.188 40.1314 86.104C40.0954 86.008 40.0714 85.894 40.0594 85.762C40.0474 85.63 40.0414 85.486 40.0414 85.33C40.0414 85.114 40.0534 84.934 40.0774 84.79C40.1014 84.634 40.1434 84.514 40.2034 84.43C40.2514 84.334 40.3174 84.286 40.4014 84.286V86.374ZM40.4014 86.374V84.286H44.6674L43.2634 85.456V77.338H45.6574V86.374H40.4014ZM41.0494 90.208V88.156H43.3714V90.208H41.0494ZM44.3254 90.208V88.156H46.6474V90.208H44.3254ZM52.3532 86.374V84.286H54.2432V86.374H52.3532ZM47.9072 86.374C47.8352 86.374 47.7812 86.35 47.7452 86.302C47.6972 86.254 47.6612 86.188 47.6372 86.104C47.6012 86.008 47.5772 85.894 47.5652 85.762C47.5532 85.63 47.5472 85.486 47.5472 85.33C47.5472 85.114 47.5592 84.934 47.5832 84.79C47.6072 84.634 47.6492 84.514 47.7092 84.43C47.7572 84.334 47.8232 84.286 47.9072 84.286V86.374ZM49.9412 86.374V73.648H52.3532V86.374H49.9412ZM47.9072 86.374V84.286H49.9412V86.374H47.9072ZM54.2432 86.374V84.286C54.3152 84.286 54.3752 84.31 54.4232 84.358C54.4712 84.406 54.5072 84.478 54.5312 84.574C54.5552 84.67 54.5732 84.784 54.5852 84.916C54.5972 85.036 54.6032 85.174 54.6032 85.33C54.6032 85.486 54.5972 85.63 54.5852 85.762C54.5732 85.894 54.5552 86.008 54.5312 86.104C54.5072 86.188 54.4712 86.254 54.4232 86.302C54.3752 86.35 54.3152 86.374 54.2432 86.374ZM57.6194 86.086C57.0074 85.51 56.5454 84.898 56.2334 84.25C55.9334 83.602 55.7834 82.912 55.7834 82.18C55.7834 81.472 55.9154 80.824 56.1794 80.236C56.4434 79.636 56.8034 79.12 57.2594 78.688C57.7154 78.256 58.2434 77.926 58.8434 77.698C59.4554 77.458 60.0974 77.338 60.7694 77.338C61.1294 77.338 61.5074 77.374 61.9034 77.446C62.2994 77.518 62.6774 77.614 63.0374 77.734L62.3174 79.696C62.0654 79.612 61.8134 79.546 61.5614 79.498C61.3214 79.45 61.0874 79.426 60.8594 79.426C60.3314 79.426 59.8634 79.546 59.4554 79.786C59.0474 80.014 58.7294 80.332 58.5014 80.74C58.2854 81.148 58.1774 81.616 58.1774 82.144C58.1774 82.624 58.2734 83.074 58.4654 83.494C58.6694 83.914 58.9574 84.292 59.3294 84.628L57.6194 86.086ZM54.2354 86.374V84.286H63.1994V86.374H54.2354ZM54.2354 86.374C54.1634 86.374 54.1094 86.35 54.0734 86.302C54.0254 86.254 53.9894 86.188 53.9654 86.104C53.9294 86.008 53.9054 85.894 53.8934 85.762C53.8814 85.63 53.8754 85.486 53.8754 85.33C53.8754 85.114 53.8874 84.934 53.9114 84.79C53.9354 84.634 53.9774 84.514 54.0374 84.43C54.0854 84.334 54.1514 84.286 54.2354 84.286V86.374ZM79.9015 86.374V84.286H81.7915V86.374H79.9015ZM74.7175 90.838C73.6735 90.838 72.7375 90.646 71.9095 90.262C71.0935 89.89 70.4515 89.368 69.9835 88.696C69.5155 88.024 69.2815 87.262 69.2815 86.41C69.2815 86.17 69.2995 85.852 69.3355 85.456C69.3715 85.06 69.4195 84.616 69.4795 84.124C69.5515 83.632 69.6235 83.134 69.6955 82.63C69.7795 82.114 69.8575 81.616 69.9295 81.136L72.3055 81.46C72.1735 82.264 72.0595 83.002 71.9635 83.674C71.8795 84.334 71.8135 84.898 71.7655 85.366C71.7175 85.834 71.6935 86.176 71.6935 86.392C71.6935 86.872 71.8135 87.286 72.0535 87.634C72.2935 87.982 72.6355 88.252 73.0795 88.444C73.5355 88.648 74.0815 88.75 74.7175 88.75C75.3775 88.75 75.9115 88.654 76.3195 88.462C76.7275 88.27 77.0215 88.006 77.2015 87.67C77.3935 87.334 77.4895 86.956 77.4895 86.536V77.338H79.9015V86.536C79.9015 87.4 79.6735 88.156 79.2175 88.804C78.7735 89.452 78.1615 89.95 77.3815 90.298C76.6015 90.658 75.7135 90.838 74.7175 90.838ZM81.7915 86.374V84.286C81.8635 84.286 81.9175 84.31 81.9535 84.358C82.0015 84.406 82.0375 84.478 82.0615 84.574C82.0975 84.67 82.1215 84.784 82.1335 84.916C82.1455 85.036 82.1515 85.174 82.1515 85.33C82.1515 85.486 82.1455 85.63 82.1335 85.762C82.1215 85.894 82.0975 86.008 82.0615 86.104C82.0375 86.188 82.0015 86.254 81.9535 86.302C81.9175 86.35 81.8635 86.374 81.7915 86.374ZM73.4035 76.69V74.638H75.8155V76.69H73.4035ZM88.3777 75.76C87.9457 75.76 87.6157 75.598 87.3877 75.274C87.1597 74.938 87.0457 74.476 87.0457 73.888V73.276H87.8557V73.888C87.8557 74.296 87.9037 74.578 87.9997 74.734C88.0957 74.878 88.2217 74.95 88.3777 74.95C88.6297 74.95 88.7977 74.788 88.8817 74.464C88.9777 74.14 88.9657 73.618 88.8457 72.898L89.6377 72.736C89.8057 73.684 89.7877 74.428 89.5837 74.968C89.3797 75.496 88.9777 75.76 88.3777 75.76ZM86.5057 75.76C85.9177 75.76 85.5157 75.496 85.2997 74.968C85.0957 74.428 85.0777 73.684 85.2457 72.736L86.0557 72.898C85.9237 73.618 85.9057 74.14 86.0017 74.464C86.0977 74.788 86.2657 74.95 86.5057 74.95C86.6737 74.95 86.8057 74.878 86.9017 74.734C86.9977 74.578 87.0457 74.296 87.0457 73.888V73.276H87.8557V73.888C87.8557 74.476 87.7417 74.938 87.5137 75.274C87.2857 75.598 86.9497 75.76 86.5057 75.76ZM85.4437 71.998V71.188H89.4397V71.998H85.4437ZM81.7979 86.374V84.286H91.1399L90.0419 85.222V81.91C90.0419 81.262 89.9699 80.758 89.8259 80.398C89.6819 80.026 89.4299 79.768 89.0699 79.624C88.7219 79.468 88.2359 79.39 87.6119 79.39C87.1199 79.39 86.6339 79.426 86.1539 79.498C85.6859 79.558 85.3199 79.642 85.0559 79.75L86.5499 78.346C86.4779 78.622 86.4059 78.97 86.3339 79.39C86.2739 79.81 86.2199 80.26 86.1719 80.74C86.1239 81.208 86.0999 81.67 86.0999 82.126C86.0999 82.546 86.1179 82.984 86.1539 83.44C86.2019 83.896 86.2499 84.298 86.2979 84.646C86.3579 84.994 86.4059 85.234 86.4419 85.366L84.1559 85.996C84.1079 85.828 84.0479 85.552 83.9759 85.168C83.9039 84.784 83.8379 84.328 83.7779 83.8C83.7299 83.272 83.7059 82.714 83.7059 82.126C83.7059 81.526 83.7359 80.95 83.7959 80.398C83.8559 79.834 83.9219 79.33 83.9939 78.886C84.0779 78.43 84.1559 78.064 84.2279 77.788C84.5159 77.68 84.9659 77.572 85.5779 77.464C86.1899 77.356 86.8679 77.302 87.6119 77.302C88.6919 77.302 89.5859 77.452 90.2939 77.752C91.0139 78.052 91.5479 78.538 91.8959 79.21C92.2559 79.882 92.4359 80.788 92.4359 81.928V86.374H81.7979ZM81.7979 86.374C81.7259 86.374 81.6719 86.35 81.6359 86.302C81.5879 86.254 81.5519 86.188 81.5279 86.104C81.4919 86.008 81.4679 85.894 81.4559 85.762C81.4439 85.63 81.4379 85.486 81.4379 85.33C81.4379 85.114 81.4499 84.934 81.4739 84.79C81.4979 84.634 81.5399 84.514 81.5999 84.43C81.6479 84.334 81.7139 84.286 81.7979 84.286V86.374ZM102.95 86.374V84.286H104.84V86.374H102.95ZM98.0902 90.838C97.6462 90.838 97.1782 90.802 96.6862 90.73C96.2062 90.67 95.6902 90.586 95.1382 90.478L95.4982 88.552C96.0982 88.624 96.6082 88.678 97.0282 88.714C97.4482 88.75 97.8022 88.768 98.0902 88.768C98.9542 88.768 99.5782 88.612 99.9622 88.3C100.346 87.988 100.538 87.52 100.538 86.896V78.994L101.132 79.426H98.8822C98.3902 79.426 97.9942 79.486 97.6942 79.606C97.3942 79.714 97.1722 79.948 97.0282 80.308C96.8962 80.656 96.8302 81.19 96.8302 81.91C96.8302 82.594 96.8902 83.11 97.0102 83.458C97.1422 83.794 97.3582 84.016 97.6582 84.124C97.9582 84.232 98.3662 84.286 98.8822 84.286H100.538V86.374H98.8822C97.8622 86.374 97.0222 86.212 96.3622 85.888C95.7022 85.564 95.2102 85.072 94.8862 84.412C94.5742 83.752 94.4182 82.918 94.4182 81.91C94.4182 80.902 94.5742 80.062 94.8862 79.39C95.2102 78.706 95.7022 78.196 96.3622 77.86C97.0222 77.512 97.8622 77.338 98.8822 77.338H102.95V86.896C102.95 87.712 102.746 88.414 102.338 89.002C101.942 89.602 101.378 90.058 100.646 90.37C99.9262 90.682 99.0742 90.838 98.0902 90.838ZM104.84 86.374V84.286C104.912 84.286 104.966 84.31 105.002 84.358C105.05 84.406 105.086 84.478 105.11 84.574C105.146 84.67 105.17 84.784 105.182 84.916C105.194 85.036 105.2 85.174 105.2 85.33C105.2 85.486 105.194 85.63 105.182 85.762C105.17 85.894 105.146 86.008 105.11 86.104C105.086 86.188 105.05 86.254 105.002 86.302C104.966 86.35 104.912 86.374 104.84 86.374ZM97.9282 75.556C97.7002 75.28 97.5262 75.016 97.4062 74.764C97.2862 74.512 97.2262 74.242 97.2262 73.954C97.2262 73.546 97.3342 73.18 97.5502 72.856C97.7662 72.52 98.0482 72.262 98.3962 72.082C98.7442 71.89 99.1282 71.794 99.5482 71.794C99.7762 71.794 100.01 71.824 100.25 71.884C100.49 71.944 100.694 72.034 100.862 72.154L100.25 73.252C100.142 73.192 100.034 73.156 99.9262 73.144C99.8302 73.12 99.7282 73.108 99.6202 73.108C99.3322 73.108 99.1102 73.186 98.9542 73.342C98.7982 73.486 98.7202 73.684 98.7202 73.936C98.7202 74.08 98.7502 74.218 98.8102 74.35C98.8702 74.482 98.9602 74.626 99.0802 74.782L97.9282 75.556ZM96.8302 75.7V74.386H101.186V75.7H96.8302ZM104.843 86.374V84.286H114.185L113.087 85.222V81.91C113.087 81.262 113.015 80.758 112.871 80.398C112.727 80.026 112.475 79.768 112.115 79.624C111.767 79.468 111.281 79.39 110.657 79.39C110.165 79.39 109.679 79.426 109.199 79.498C108.731 79.558 108.365 79.642 108.101 79.75L109.595 78.346C109.523 78.622 109.451 78.97 109.379 79.39C109.319 79.81 109.265 80.26 109.217 80.74C109.169 81.208 109.145 81.67 109.145 82.126C109.145 82.546 109.163 82.984 109.199 83.44C109.247 83.896 109.295 84.298 109.343 84.646C109.403 84.994 109.451 85.234 109.487 85.366L107.201 85.996C107.153 85.828 107.093 85.552 107.021 85.168C106.949 84.784 106.883 84.328 106.823 83.8C106.775 83.272 106.751 82.714 106.751 82.126C106.751 81.526 106.781 80.95 106.841 80.398C106.901 79.834 106.967 79.33 107.039 78.886C107.123 78.43 107.201 78.064 107.273 77.788C107.561 77.68 108.011 77.572 108.623 77.464C109.235 77.356 109.913 77.302 110.657 77.302C111.737 77.302 112.631 77.452 113.339 77.752C114.059 78.052 114.593 78.538 114.941 79.21C115.301 79.882 115.481 80.788 115.481 81.928V86.374H104.843ZM104.843 86.374C104.771 86.374 104.717 86.35 104.681 86.302C104.633 86.254 104.597 86.188 104.573 86.104C104.537 86.008 104.513 85.894 104.501 85.762C104.489 85.63 104.483 85.486 104.483 85.33C104.483 85.114 104.495 84.934 104.519 84.79C104.543 84.634 104.585 84.514 104.645 84.43C104.693 84.334 104.759 84.286 104.843 84.286V86.374Z" fill="#1F2937"/>
<path d="M60.6593 105.576C60.2767 105.576 60.0853 105.38 60.0853 104.988C60.0853 104.615 60.2767 104.428 60.6593 104.428C61.0233 104.428 61.2053 104.615 61.2053 104.988C61.2053 105.38 61.0233 105.576 60.6593 105.576ZM62.2553 105.576C61.8727 105.576 61.6813 105.38 61.6813 104.988C61.6813 104.615 61.8727 104.428 62.2553 104.428C62.6193 104.428 62.8013 104.615 62.8013 104.988C62.8013 105.38 62.6193 105.576 62.2553 105.576ZM63.7673 112.688C63.7673 113.771 63.3753 114.611 62.5913 115.208C61.8727 115.759 60.8927 116.034 59.6513 116.034C58.214 116.034 57.1313 115.614 56.4033 114.774C55.862 114.149 55.5913 113.379 55.5913 112.464C55.5913 111.661 55.7967 110.971 56.2073 110.392L57.1173 110.21C56.6693 110.891 56.4453 111.619 56.4453 112.394C56.4453 113.243 56.7393 113.92 57.3273 114.424C57.8967 114.919 58.6713 115.166 59.6513 115.166C60.7713 115.166 61.602 114.909 62.1433 114.396C62.5913 113.976 62.8153 113.416 62.8153 112.716C62.47 113.033 61.9707 113.192 61.3173 113.192C60.5147 113.192 59.88 112.875 59.4133 112.24C59.0213 111.708 58.8253 111.041 58.8253 110.238C58.8253 109.258 59.0867 108.493 59.6093 107.942C60.0667 107.457 60.6733 107.214 61.4293 107.214C62.204 107.214 62.8013 107.457 63.2213 107.942C63.5853 108.362 63.7673 108.922 63.7673 109.622V112.688ZM62.8293 109.706C62.8293 108.614 62.3627 108.068 61.4293 108.068C60.9067 108.068 60.496 108.259 60.1973 108.642C59.8987 109.025 59.7493 109.552 59.7493 110.224C59.7493 110.887 59.8893 111.409 60.1693 111.792C60.4587 112.175 60.8507 112.366 61.3453 112.366C62.1013 112.366 62.596 112.151 62.8293 111.722V109.706ZM72.2986 112.506V113.374H70.8146C70.8052 113.99 70.6046 114.531 70.2126 114.998C69.8299 115.474 69.3306 115.787 68.7146 115.936C68.4906 116.001 68.2479 116.034 67.9866 116.034C67.4452 116.034 66.9179 115.903 66.4046 115.642V114.816C66.8899 115.077 67.3706 115.208 67.8466 115.208C68.2292 115.208 68.5652 115.124 68.8546 114.956C69.1439 114.807 69.3866 114.578 69.5826 114.27C69.7786 113.971 69.8766 113.673 69.8766 113.374L68.6866 113.332C67.6506 113.285 66.8759 112.959 66.3626 112.352C65.9426 111.839 65.7326 111.153 65.7326 110.294C65.7326 109.286 65.9939 108.507 66.5166 107.956C66.9832 107.461 67.6086 107.214 68.3926 107.214C69.2046 107.214 69.8252 107.457 70.2546 107.942C70.6279 108.362 70.8146 108.922 70.8146 109.622V112.506H72.2986ZM69.8766 109.72C69.8766 108.619 69.3819 108.068 68.3926 108.068C67.8419 108.068 67.4126 108.264 67.1046 108.656C66.8059 109.039 66.6566 109.58 66.6566 110.28C66.6566 111.671 67.3426 112.399 68.7146 112.464C69.1252 112.492 69.5126 112.506 69.8766 112.506V109.72ZM73.6363 104.078C73.291 104.078 73.1183 103.901 73.1183 103.546C73.1183 103.201 73.291 103.028 73.6363 103.028C73.9723 103.028 74.1403 103.201 74.1403 103.546C74.1403 103.901 73.9723 104.078 73.6363 104.078ZM72.8523 105.534C72.4697 105.534 72.2783 105.338 72.2783 104.946C72.2783 104.573 72.4697 104.386 72.8523 104.386C73.2163 104.386 73.3983 104.573 73.3983 104.946C73.3983 105.338 73.2163 105.534 72.8523 105.534ZM74.4483 105.534C74.0657 105.534 73.8743 105.338 73.8743 104.946C73.8743 104.573 74.0657 104.386 74.4483 104.386C74.8123 104.386 74.9943 104.573 74.9943 104.946C74.9943 105.338 74.8123 105.534 74.4483 105.534ZM72.0123 113.374V112.506H72.5023C73.529 112.506 74.0423 111.974 74.0423 110.91V107.872L74.9803 107.382V110.938C74.9803 111.722 74.7517 112.333 74.2943 112.772C73.8743 113.173 73.3143 113.374 72.6143 113.374H72.0123ZM83.6462 112.506V113.374H82.1622C82.1529 113.99 81.9522 114.531 81.5602 114.998C81.1776 115.474 80.6782 115.787 80.0622 115.936C79.8382 116.001 79.5956 116.034 79.3342 116.034C78.7929 116.034 78.2656 115.903 77.7522 115.642V114.816C78.2376 115.077 78.7182 115.208 79.1942 115.208C79.5769 115.208 79.9129 115.124 80.2022 114.956C80.4916 114.807 80.7342 114.578 80.9302 114.27C81.1262 113.971 81.2242 113.673 81.2242 113.374L80.0342 113.332C78.9982 113.285 78.2236 112.959 77.7102 112.352C77.2902 111.839 77.0802 111.153 77.0802 110.294C77.0802 109.286 77.3416 108.507 77.8642 107.956C78.3309 107.461 78.9562 107.214 79.7402 107.214C80.5522 107.214 81.1729 107.457 81.6022 107.942C81.9756 108.362 82.1622 108.922 82.1622 109.622V112.506H83.6462ZM81.2242 109.72C81.2242 108.619 80.7296 108.068 79.7402 108.068C79.1896 108.068 78.7602 108.264 78.4522 108.656C78.1536 109.039 78.0042 109.58 78.0042 110.28C78.0042 111.671 78.6902 112.399 80.0622 112.464C80.4729 112.492 80.8602 112.506 81.2242 112.506V109.72ZM85.39 109.622C85.39 108.829 85.628 108.213 86.104 107.774C86.5147 107.401 87.056 107.214 87.728 107.214C88.596 107.214 89.2633 107.531 89.73 108.166C90.1313 108.707 90.332 109.417 90.332 110.294C90.332 111.293 90.0753 112.072 89.562 112.632C89.114 113.127 88.5307 113.374 87.812 113.374C86.9347 113.374 86.2813 113.094 85.852 112.534C85.432 113.094 84.802 113.374 83.962 113.374H83.36V112.506H83.85C84.8767 112.506 85.39 111.974 85.39 110.91V109.622ZM86.328 110.966C86.328 111.993 86.832 112.506 87.84 112.506C88.3253 112.506 88.708 112.31 88.988 111.918C89.268 111.526 89.408 110.98 89.408 110.28C89.408 109.589 89.2587 109.048 88.96 108.656C88.6707 108.264 88.26 108.068 87.728 108.068C86.7947 108.068 86.328 108.614 86.328 109.706V110.966Z" fill="#6B7280"/>
</svg>
