<svg width="26" height="31" viewBox="0 0 26 31" fill="none" xmlns="http://www.w3.org/2000/svg">
<path d="M18.5625 29.7C18.2875 29.975 17.9688 30.1875 17.6063 30.3375C17.2438 30.4875 16.8625 30.5625 16.4625 30.5625C16.0625 30.5625 15.675 30.4875 15.3 30.3375C14.925 30.1875 14.6 29.975 14.325 29.7L12.225 27.6C11.95 27.325 11.7437 27.0187 11.6062 26.6812C11.4688 26.3438 11.3875 26 11.3625 25.65C11.3375 25.3 11.3812 24.95 11.4937 24.6C11.6062 24.25 11.775 23.925 12 23.625L12.225 23.325L0 5.85L5.85 0L24.9375 19.0875C25.2125 19.3625 25.425 19.6813 25.575 20.0438C25.725 20.4062 25.8 20.7875 25.8 21.1875C25.8 21.5875 25.725 21.975 25.575 22.35C25.425 22.725 25.2125 23.05 24.9375 23.325L18.5625 29.7ZM16.4625 27.5625L22.8 21.225L20.7 19.0875L14.325 25.4625L16.4625 27.5625Z" fill="#D97706"/>
</svg>
