<svg width="64" height="64" viewBox="0 0 64 64" fill="none" xmlns="http://www.w3.org/2000/svg">
<rect width="64" height="64" rx="24" fill="#FFF7ED"/>
<path d="M37.6626 46.4188C37.3876 46.6938 37.0688 46.9062 36.7063 47.0562C36.3438 47.2062 35.9626 47.2812 35.5626 47.2812C35.1626 47.2812 34.7751 47.2062 34.4001 47.0562C34.0251 46.9062 33.7001 46.6938 33.4251 46.4188L31.3251 44.3188C31.0501 44.0438 30.8438 43.7375 30.7063 43.4C30.5688 43.0625 30.4876 42.7188 30.4626 42.3687C30.4376 42.0187 30.4813 41.6688 30.5938 41.3188C30.7063 40.9688 30.8751 40.6437 31.1001 40.3438L31.3251 40.0438L19.1001 22.5687L24.9501 16.7188L44.0376 35.8062C44.3126 36.0812 44.5251 36.4 44.6751 36.7625C44.8251 37.125 44.9001 37.5063 44.9001 37.9062C44.9001 38.3062 44.8251 38.6938 44.6751 39.0688C44.5251 39.4438 44.3126 39.7688 44.0376 40.0438L37.6626 46.4188ZM35.5626 44.2812L41.9001 37.9438L39.8001 35.8062L33.4251 42.1812L35.5626 44.2812Z" fill="#D97706"/>
</svg>
