<svg width="21" height="28" viewBox="0 0 21 28" fill="none" xmlns="http://www.w3.org/2000/svg">
<path d="M17.5195 8.49609H15C14.3555 8.49609 13.7695 9.02344 13.7695 9.72656C13.7695 10.4297 14.3555 10.957 15 10.957H17.5195V24.7266H2.51953V10.957H5.03906C5.68359 10.957 6.26953 10.4297 6.26953 9.72656C6.26953 9.02344 5.68359 8.49609 5.03906 8.49609H2.51953C1.17188 8.49609 0 9.60938 0 10.957V24.7266C0 26.0742 1.17188 27.2461 2.51953 27.2461H17.5195C18.8672 27.2461 20.0391 26.0742 20.0391 24.7266V10.957C20.0391 9.60938 18.8672 8.49609 17.5195 8.49609ZM10.0195 18.457C10.7227 18.457 11.25 17.9297 11.25 17.2266V4.74609H13.5352C14.0625 4.74609 14.3555 4.04297 13.9453 3.69141L10.4297 0.175781C10.1953 -0.0585938 9.84375 -0.0585938 9.55078 0.175781L6.09375 3.69141C5.68359 4.04297 5.97656 4.74609 6.50391 4.74609H8.78906V17.2266C8.78906 17.9297 9.31641 18.457 10.0195 18.457Z" fill="#1E293B"/>
</svg>
