<svg width="144" height="144" viewBox="0 0 144 144" fill="none" xmlns="http://www.w3.org/2000/svg">
<rect x="0.5" y="0.5" width="143" height="143" rx="31.5" fill="#EFF6FF"/>
<rect x="0.5" y="0.5" width="143" height="143" rx="31.5" stroke="#DBEAFE"/>
<path d="M72 25.0234C63.7031 25.0234 57.0234 31.7031 57.0234 40C57.0234 48.2969 63.7031 54.9766 72 54.9766C80.2969 54.9766 86.9766 48.2969 86.9766 40C86.9766 31.7031 80.2969 25.0234 72 25.0234ZM72 52.0234C65.3906 52.0234 59.9766 46.6094 59.9766 40C59.9766 33.3906 65.3906 27.9766 72 27.9766C78.6094 27.9766 84.0234 33.3906 84.0234 40C84.0234 46.6094 78.6094 52.0234 72 52.0234ZM71.6484 32.4766H71.5781C70.9453 32.4766 70.5234 32.9688 70.5234 33.6016V40.6328C70.5234 41.1953 70.8047 41.6875 71.2266 41.9688L77.4844 45.6953C77.9766 45.9766 78.6094 45.8359 78.9609 45.3438C79.2422 44.7812 79.1016 44.1484 78.5391 43.8672L72.7734 40.4219V33.6016C72.7734 32.9688 72.2812 32.4766 71.6484 32.4766Z" fill="#3B82F6"/>
<path d="M49.6828 87.4866L50.0248 89.4306C49.4848 89.5386 48.9688 89.6226 48.4768 89.6826C47.9968 89.7546 47.5288 89.7906 47.0728 89.7906C46.1008 89.7906 45.2488 89.6346 44.5168 89.3226C43.7968 89.0106 43.2328 88.5546 42.8248 87.9546C42.4288 87.3666 42.2308 86.6646 42.2308 85.8486C42.2308 85.1166 42.3868 84.4686 42.6988 83.9046C43.0108 83.3286 43.4548 82.8546 44.0308 82.4826C44.6068 82.1106 45.2728 81.8586 46.0288 81.7266L46.2268 81.5826C46.5748 81.4626 46.9348 81.3066 47.3068 81.1146C47.6788 80.9106 48.0328 80.6706 48.3688 80.3946C48.7168 80.1186 49.0228 79.8186 49.2868 79.4946C49.5508 79.1586 49.7608 78.8046 49.9168 78.4326C50.0848 78.0606 50.1688 77.6766 50.1688 77.2806V76.1286L51.3208 78.0366C50.6968 77.7006 50.0548 77.4486 49.3948 77.2806C48.7468 77.1126 48.1348 77.0286 47.5588 77.0286C46.9708 77.0286 46.3528 77.1126 45.7048 77.2806C45.0568 77.4486 44.4208 77.7006 43.7968 78.0366L44.9488 76.1286V77.2806C44.9488 77.6526 45.0328 78.0486 45.2008 78.4686C45.3808 78.8886 45.6208 79.3026 45.9208 79.7106C46.2208 80.1066 46.5748 80.4726 46.9828 80.8086C47.3908 81.1326 47.8348 81.3966 48.3148 81.6006C48.7948 81.7926 49.2868 81.8886 49.7908 81.8886H53.4268V83.9766H50.5648C49.6288 83.9766 48.7528 83.8266 47.9368 83.5266C47.1208 83.2266 46.3828 82.8306 45.7228 82.3386C45.0628 81.8346 44.4928 81.2886 44.0128 80.7006C43.5448 80.1006 43.1848 79.5066 42.9328 78.9186C42.6808 78.3186 42.5548 77.7726 42.5548 77.2806V76.2546C43.0708 75.9666 43.6168 75.7266 44.1928 75.5346C44.7808 75.3426 45.3628 75.1986 45.9388 75.1026C46.5148 74.9946 47.0548 74.9406 47.5588 74.9406C48.0628 74.9406 48.6028 74.9946 49.1788 75.1026C49.7548 75.1986 50.3308 75.3426 50.9068 75.5346C51.4948 75.7266 52.0468 75.9666 52.5628 76.2546V77.2806C52.5628 77.8926 52.4308 78.4866 52.1668 79.0626C51.9028 79.6266 51.5428 80.1546 51.0868 80.6466C50.6428 81.1386 50.1388 81.5826 49.5748 81.9786C49.0108 82.3746 48.4288 82.7046 47.8288 82.9686C47.7328 83.0166 47.5948 83.0826 47.4148 83.1666C47.2348 83.2386 47.0428 83.3166 46.8388 83.4006C46.6468 83.4726 46.4788 83.5386 46.3348 83.5986C46.1908 83.6466 46.1008 83.6826 46.0648 83.7066C45.8248 83.8146 45.5968 83.9586 45.3808 84.1386C45.1648 84.3306 44.9848 84.5646 44.8408 84.8406C44.7088 85.1166 44.6428 85.4586 44.6428 85.8666C44.6428 86.4666 44.8408 86.9226 45.2368 87.2346C45.6448 87.5586 46.2568 87.7206 47.0728 87.7206C47.3608 87.7206 47.7148 87.6966 48.1348 87.6486C48.5668 87.6126 49.0828 87.5586 49.6828 87.4866ZM53.4268 83.9766V81.8886C53.4988 81.8886 53.5528 81.9126 53.5888 81.9606C53.6368 82.0086 53.6728 82.0806 53.6968 82.1766C53.7328 82.2726 53.7568 82.3866 53.7688 82.5186C53.7808 82.6386 53.7868 82.7766 53.7868 82.9326C53.7868 83.0886 53.7808 83.2326 53.7688 83.3646C53.7568 83.4966 53.7328 83.6106 53.6968 83.7066C53.6728 83.7906 53.6368 83.8566 53.5888 83.9046C53.5528 83.9526 53.4988 83.9766 53.4268 83.9766ZM53.4287 83.9766V81.8886H57.6947L56.2907 83.0586V74.9406H58.6847V83.9766H53.4287ZM53.4287 83.9766C53.3567 83.9766 53.3027 83.9526 53.2667 83.9046C53.2187 83.8566 53.1827 83.7906 53.1587 83.7066C53.1227 83.6106 53.0987 83.4966 53.0867 83.3646C53.0747 83.2326 53.0687 83.0886 53.0687 82.9326C53.0687 82.7166 53.0807 82.5366 53.1047 82.3926C53.1287 82.2366 53.1707 82.1166 53.2307 82.0326C53.2787 81.9366 53.3447 81.8886 53.4287 81.8886V83.9766ZM54.0767 87.8106V85.7586H56.3987V87.8106H54.0767ZM57.3527 87.8106V85.7586H59.6747V87.8106H57.3527ZM78.0471 83.9766C77.5551 83.9766 77.0691 83.8866 76.5891 83.7066C76.1091 83.5146 75.6591 83.2326 75.2391 82.8606L76.7331 81.3306C76.9611 81.5226 77.1831 81.6666 77.3991 81.7626C77.6151 81.8466 77.8311 81.8886 78.0471 81.8886H81.4311L80.1711 83.0226V79.0266C80.1711 78.8346 80.1471 78.5466 80.0991 78.1626C80.0631 77.7666 80.0091 77.3226 79.9371 76.8306C79.8651 76.3266 79.7751 75.8166 79.6671 75.3006L82.0251 74.9406C82.1091 75.3726 82.1931 75.8586 82.2771 76.3986C82.3611 76.9266 82.4271 77.4306 82.4751 77.9106C82.5351 78.3786 82.5651 78.7506 82.5651 79.0266V83.9766H78.0471ZM65.7711 78.8286V76.7226H69.5511V78.8286H65.7711ZM69.5511 83.9766V74.9406H71.9631V83.9766H69.5511ZM71.9631 83.9766V81.8886H73.4211C73.8051 81.8886 74.0991 81.8346 74.3031 81.7266C74.5071 81.6066 74.6511 81.3726 74.7351 81.0246C74.8191 80.6646 74.8611 80.1306 74.8611 79.4226V75.8766H77.2731V79.4226C77.2731 80.4906 77.1351 81.3606 76.8591 82.0326C76.5831 82.7046 76.1631 83.1966 75.5991 83.5086C75.0351 83.8206 74.3091 83.9766 73.4211 83.9766H71.9631ZM61.8471 88.4406C61.6911 88.4406 61.5231 88.4346 61.3431 88.4226C61.1631 88.4106 60.9771 88.3926 60.7851 88.3686L60.8751 86.3166C61.0671 86.3286 61.2471 86.3406 61.4151 86.3526C61.5951 86.3646 61.7271 86.3706 61.8111 86.3706C62.2791 86.3706 62.6511 86.1846 62.9271 85.8126C63.2151 85.4406 63.3591 84.9186 63.3591 84.2466V74.9406H65.7711V84.2466C65.7711 85.0626 65.6031 85.7886 65.2671 86.4246C64.9431 87.0606 64.4871 87.5526 63.8991 87.9006C63.3111 88.2606 62.6271 88.4406 61.8471 88.4406ZM88.4612 83.9766V81.8886H94.9952L93.3572 83.3106V80.2866C93.3572 79.4346 93.2672 78.7746 93.0872 78.3066C92.9192 77.8386 92.6312 77.5086 92.2232 77.3166C91.8272 77.1246 91.2812 77.0286 90.5852 77.0286H89.1272V74.9406H90.5852C91.6892 74.9406 92.6252 75.1206 93.3932 75.4806C94.1732 75.8406 94.7612 76.4166 95.1572 77.2086C95.5652 77.9886 95.7692 79.0146 95.7692 80.2866V83.9766H88.4612ZM97.3549 88.4406C97.1989 88.4406 97.0309 88.4346 96.8509 88.4226C96.6709 88.4106 96.4849 88.3926 96.2929 88.3686L96.3829 86.3166C96.5749 86.3286 96.7549 86.3406 96.9229 86.3526C97.1029 86.3646 97.2349 86.3706 97.3189 86.3706C97.7869 86.3706 98.1589 86.1846 98.4349 85.8126C98.7229 85.4406 98.8669 84.9186 98.8669 84.2466V74.9406H101.279V84.2466C101.279 85.0626 101.111 85.7886 100.775 86.4246C100.451 87.0606 99.9949 87.5526 99.4069 87.9006C98.8189 88.2606 98.1349 88.4406 97.3549 88.4406Z" fill="#1F2937"/>
<path d="M43.5736 113.977C42.7616 113.977 42.1269 113.855 41.6696 113.613C41.2216 113.361 40.9043 112.978 40.7176 112.465C40.5403 111.942 40.4516 111.279 40.4516 110.477C40.4516 109.674 40.5403 109.016 40.7176 108.503C40.9043 107.98 41.2216 107.597 41.6696 107.355C42.1269 107.103 42.7616 106.977 43.5736 106.977H46.4716V113.417H45.3796V107.495L45.9396 107.971H43.5736C43.0323 107.971 42.6123 108.036 42.3136 108.167C42.0243 108.297 41.8236 108.545 41.7116 108.909C41.5996 109.263 41.5436 109.786 41.5436 110.477C41.5436 111.167 41.5996 111.695 41.7116 112.059C41.8236 112.413 42.0243 112.656 42.3136 112.787C42.6123 112.917 43.0323 112.983 43.5736 112.983H47.9836V113.977H43.5736ZM47.9836 113.977V112.983C48.0396 112.983 48.0863 112.997 48.1236 113.025C48.1609 113.043 48.1889 113.076 48.2076 113.123C48.2263 113.16 48.2403 113.211 48.2496 113.277C48.2589 113.333 48.2636 113.398 48.2636 113.473C48.2636 113.547 48.2589 113.617 48.2496 113.683C48.2403 113.748 48.2263 113.804 48.2076 113.851C48.1889 113.888 48.1609 113.921 48.1236 113.949C48.0863 113.967 48.0396 113.977 47.9836 113.977ZM42.2156 105.717V104.457H43.3076V105.717H42.2156ZM44.1336 105.717V104.457H45.2256V105.717H44.1336ZM55.4194 113.977V112.983H56.9314V113.977H55.4194ZM47.9854 113.977C47.9294 113.977 47.8827 113.967 47.8454 113.949C47.808 113.921 47.78 113.888 47.7614 113.851C47.7427 113.804 47.7287 113.748 47.7194 113.683C47.71 113.617 47.7054 113.547 47.7054 113.473C47.7054 113.37 47.7147 113.286 47.7334 113.221C47.7427 113.146 47.7707 113.09 47.8174 113.053C47.8547 113.006 47.9107 112.983 47.9854 112.983V113.977ZM47.9854 113.977V112.983H55.0554L54.3274 113.613V107.495L54.9014 107.971H52.5214C51.98 107.971 51.56 108.036 51.2614 108.167C50.972 108.297 50.7714 108.545 50.6594 108.909C50.5474 109.263 50.4914 109.786 50.4914 110.477C50.4914 111.167 50.5474 111.695 50.6594 112.059C50.7714 112.413 50.972 112.656 51.2614 112.787C51.56 112.917 51.98 112.983 52.5214 112.983V113.697C51.7094 113.697 51.0747 113.599 50.6174 113.403C50.1694 113.197 49.852 112.861 49.6654 112.395C49.488 111.919 49.3994 111.279 49.3994 110.477C49.3994 109.674 49.488 109.016 49.6654 108.503C49.852 107.98 50.1694 107.597 50.6174 107.355C51.0747 107.103 51.7094 106.977 52.5214 106.977H55.4194V113.977H47.9854ZM56.9314 113.977V112.983C56.9874 112.983 57.034 112.997 57.0714 113.025C57.1087 113.043 57.1367 113.076 57.1554 113.123C57.174 113.16 57.188 113.211 57.1974 113.277C57.2067 113.333 57.2114 113.398 57.2114 113.473C57.2114 113.547 57.2067 113.617 57.1974 113.683C57.188 113.748 57.174 113.804 57.1554 113.851C57.1367 113.888 57.1087 113.921 57.0714 113.949C57.034 113.967 56.9874 113.977 56.9314 113.977ZM51.2334 105.717V104.457H52.3254V105.717H51.2334ZM53.1514 105.717V104.457H54.2434V105.717H53.1514ZM59.5308 113.977V112.983H61.0428V113.977H59.5308ZM61.0428 113.977V112.983C61.0988 112.983 61.1454 112.997 61.1828 113.025C61.2201 113.043 61.2481 113.076 61.2668 113.123C61.2854 113.16 61.2994 113.211 61.3088 113.277C61.3181 113.333 61.3228 113.398 61.3228 113.473C61.3228 113.547 61.3181 113.617 61.3088 113.683C61.2994 113.748 61.2854 113.804 61.2668 113.851C61.2481 113.888 61.2201 113.921 61.1828 113.949C61.1454 113.967 61.0988 113.977 61.0428 113.977ZM56.9268 113.977C56.8708 113.977 56.8241 113.967 56.7868 113.949C56.7494 113.921 56.7214 113.888 56.7028 113.851C56.6841 113.804 56.6701 113.748 56.6608 113.683C56.6514 113.617 56.6468 113.547 56.6468 113.473C56.6468 113.37 56.6561 113.286 56.6748 113.221C56.6841 113.146 56.7121 113.09 56.7588 113.053C56.7961 113.006 56.8521 112.983 56.9268 112.983V113.977ZM56.9268 113.977V112.983H58.9428L58.4388 113.389V106.977H59.5308V113.977H56.9268ZM57.4868 116.497V115.237H58.5788V116.497H57.4868ZM59.4048 116.497V115.237H60.4968V116.497H59.4048ZM61.042 113.977V112.983H68.112L67.384 113.613V107.495L67.958 107.971H65.578C65.0367 107.971 64.6167 108.036 64.318 108.167C64.0287 108.297 63.828 108.545 63.716 108.909C63.604 109.263 63.548 109.786 63.548 110.477C63.548 111.167 63.604 111.695 63.716 112.059C63.828 112.413 64.0287 112.656 64.318 112.787C64.6167 112.917 65.0367 112.983 65.578 112.983V113.697C64.766 113.697 64.1313 113.599 63.674 113.403C63.226 113.197 62.9087 112.861 62.722 112.395C62.5447 111.919 62.456 111.279 62.456 110.477C62.456 109.674 62.5447 109.016 62.722 108.503C62.9087 107.98 63.226 107.597 63.674 107.355C64.1313 107.103 64.766 106.977 65.578 106.977H68.476V113.977H61.042ZM61.042 113.977C60.986 113.977 60.9393 113.967 60.902 113.949C60.8647 113.921 60.8367 113.888 60.818 113.851C60.7993 113.804 60.7853 113.748 60.776 113.683C60.7667 113.617 60.762 113.547 60.762 113.473C60.762 113.37 60.7713 113.286 60.79 113.221C60.7993 113.146 60.8273 113.09 60.874 113.053C60.9113 113.006 60.9673 112.983 61.042 112.983V113.977ZM64.29 105.717V104.457H65.382V105.717H64.29ZM66.208 105.717V104.457H67.3V105.717H66.208ZM70.1059 113.977V112.983H75.3279L74.4319 113.781V110.729C74.4319 110.038 74.3526 109.492 74.1939 109.091C74.0352 108.689 73.7739 108.405 73.4099 108.237C73.0552 108.059 72.5746 107.971 71.9679 107.971H70.8339V106.977H71.9679C72.7146 106.977 73.3539 107.093 73.8859 107.327C74.4179 107.56 74.8239 107.952 75.1039 108.503C75.3839 109.044 75.5239 109.786 75.5239 110.729V113.977H70.1059ZM81.0136 113.977V104.737H82.0916V113.977H81.0136ZM88.456 114.033C87.9706 114.033 87.504 113.953 87.056 113.795C86.608 113.627 86.2066 113.379 85.852 113.053C85.4973 112.726 85.2173 112.325 85.012 111.849C84.8066 111.363 84.704 110.803 84.704 110.169C84.704 109.758 84.7506 109.31 84.844 108.825C84.9373 108.339 85.082 107.854 85.278 107.369C85.474 106.883 85.7213 106.44 86.02 106.039C86.3186 105.628 86.6686 105.301 87.07 105.059C87.4806 104.807 87.9426 104.681 88.456 104.681C88.9693 104.681 89.4266 104.802 89.828 105.045C90.2386 105.287 90.5933 105.614 90.892 106.025C91.1906 106.426 91.438 106.869 91.634 107.355C91.83 107.84 91.9746 108.33 92.068 108.825C92.1613 109.31 92.208 109.758 92.208 110.169C92.208 110.803 92.1053 111.363 91.9 111.849C91.6946 112.325 91.4146 112.726 91.06 113.053C90.7053 113.379 90.304 113.627 89.856 113.795C89.408 113.953 88.9413 114.033 88.456 114.033ZM88.456 113.039C88.988 113.039 89.4546 112.927 89.856 112.703C90.2573 112.469 90.57 112.129 90.794 111.681C91.018 111.233 91.13 110.687 91.13 110.043C91.13 109.511 91.0553 108.988 90.906 108.475C90.7566 107.952 90.556 107.481 90.304 107.061C90.052 106.641 89.7626 106.305 89.436 106.053C89.1186 105.801 88.792 105.675 88.456 105.675C88.12 105.675 87.7886 105.801 87.462 106.053C87.1446 106.305 86.86 106.645 86.608 107.075C86.356 107.495 86.1553 107.961 86.006 108.475C85.8566 108.988 85.782 109.511 85.782 110.043C85.782 110.677 85.894 111.219 86.118 111.667C86.342 112.115 86.6546 112.455 87.056 112.689C87.4573 112.922 87.924 113.039 88.456 113.039ZM101.622 111.261C101.445 111.261 101.221 111.219 100.95 111.135C100.689 111.051 100.418 110.953 100.138 110.841C99.8677 110.729 99.6111 110.631 99.3684 110.547C99.1351 110.463 98.9531 110.421 98.8224 110.421C98.6824 110.421 98.5191 110.458 98.3324 110.533C98.1551 110.598 97.9777 110.682 97.8004 110.785C97.6324 110.878 97.4831 110.971 97.3524 111.065L97.2124 110.169C97.3431 110.057 97.4971 109.945 97.6744 109.833C97.8611 109.721 98.0571 109.627 98.2624 109.553C98.4677 109.469 98.6591 109.427 98.8364 109.427C99.0231 109.427 99.2424 109.469 99.4944 109.553C99.7557 109.637 100.017 109.735 100.278 109.847C100.549 109.959 100.801 110.057 101.034 110.141C101.277 110.225 101.478 110.267 101.636 110.267C101.767 110.267 101.916 110.234 102.084 110.169C102.262 110.094 102.434 110.005 102.602 109.903C102.78 109.8 102.934 109.707 103.064 109.623L103.204 110.519C103.083 110.621 102.934 110.733 102.756 110.855C102.579 110.967 102.392 111.065 102.196 111.149C102 111.223 101.809 111.261 101.622 111.261Z" fill="#6B7280"/>
</svg>
