<svg width="64" height="64" viewBox="0 0 64 64" fill="none" xmlns="http://www.w3.org/2000/svg">
<rect width="64" height="64" rx="24" fill="#EFF6FF"/>
<path d="M42.9124 27.7625L37.6249 22.475L34.4374 25.625L31.2499 22.475L35.4874 18.2C35.7874 17.9 36.1249 17.6812 36.4999 17.5437C36.8749 17.4062 37.2499 17.3375 37.6249 17.3375C38.0249 17.3375 38.4062 17.4062 38.7687 17.5437C39.1312 17.6812 39.4499 17.9 39.7249 18.2L42.9124 21.3875C43.3624 21.8125 43.6937 22.3062 43.9062 22.8687C44.1187 23.4312 44.2249 24 44.2249 24.575C44.2249 25.15 44.1187 25.7125 43.9062 26.2625C43.6937 26.8125 43.3624 27.3125 42.9124 27.7625ZM22.2499 34.6625C21.7999 34.2125 21.5749 33.6812 21.5749 33.0687C21.5749 32.4562 21.7999 31.925 22.2499 31.475L25.9249 27.7625L29.1124 30.95L25.3999 34.6625C24.9749 35.1125 24.4562 35.3375 23.8437 35.3375C23.2312 35.3375 22.6999 35.1125 22.2499 34.6625ZM20.6374 45.8C20.3624 45.5 20.1499 45.1687 19.9999 44.8062C19.8499 44.4437 19.7749 44.0625 19.7749 43.6625C19.7749 43.2625 19.8437 42.8812 19.9812 42.5187C20.1187 42.1562 20.3374 41.825 20.6374 41.525L31.2499 30.95L26.4874 26.15C26.0374 25.725 25.8124 25.2062 25.8124 24.5937C25.8124 23.9812 26.0374 23.45 26.4874 23C26.9124 22.55 27.4374 22.325 28.0624 22.325C28.6874 22.325 29.2249 22.55 29.6749 23L34.4374 27.7625L36.5749 25.625L40.7749 29.9C41.0749 30.2 41.2249 30.55 41.2249 30.95C41.2249 31.35 41.0749 31.7 40.7749 32C40.4749 32.3 40.1249 32.45 39.7249 32.45C39.3249 32.45 38.9749 32.3 38.6749 32L24.8749 45.8C24.5749 46.1 24.2437 46.3187 23.8812 46.4562C23.5187 46.5937 23.1499 46.6625 22.7749 46.6625C22.3999 46.6625 22.0249 46.5875 21.6499 46.4375C21.2749 46.2875 20.9374 46.075 20.6374 45.8Z" fill="#0284C7"/>
</svg>
