<svg width="55" height="55" viewBox="0 0 55 55" fill="none" xmlns="http://www.w3.org/2000/svg">
<path d="M51.1363 44.6418H50.0225C49.6458 42.9913 48.1685 41.7543 46.4057 41.7543C45.8228 41.7584 45.2491 41.9003 44.7315 42.1685C44.2386 41.5545 43.6145 41.0587 42.905 40.7173C42.1955 40.376 41.4186 40.1977 40.6313 40.1956C39.2826 40.196 37.9859 40.7156 37.0101 41.6465V38.9543L37.5348 39.3266C37.6232 39.3894 37.7231 39.4341 37.8287 39.4582C37.9344 39.4823 38.0438 39.4854 38.1507 39.4672C38.2576 39.4491 38.3598 39.41 38.4516 39.3524C38.5434 39.2947 38.6229 39.2195 38.6856 39.1311C38.7484 39.0427 38.7931 38.9428 38.8172 38.8371C38.8413 38.7314 38.8444 38.622 38.8262 38.5152C38.8081 38.4083 38.769 38.3061 38.7114 38.2143C38.6537 38.1225 38.5785 38.043 38.4901 37.9802L37.0106 36.9303V24.4832H38.0127C38.2315 24.4832 38.4414 24.3963 38.5961 24.2416C38.7508 24.0869 38.8377 23.877 38.8377 23.6582V17.8145C38.8377 17.5957 38.7508 17.3858 38.5961 17.2311C38.4414 17.0764 38.2315 16.9895 38.0127 16.9895H33.4725V12.8282C33.4725 12.6094 33.3855 12.3995 33.2308 12.2448C33.0761 12.0901 32.8663 12.0032 32.6475 12.0032H32.0364V10.0375H33.0732C33.2838 10.0375 33.4741 9.95609 33.6199 9.82629C34.2051 11.0016 35.3859 12.1269 37.5887 12.59C37.8008 12.6301 38.0201 12.5855 38.1997 12.4657C38.3793 12.346 38.5047 12.1606 38.5492 11.9494C38.5937 11.7382 38.5536 11.5179 38.4376 11.3359C38.3216 11.1539 38.1388 11.0246 37.9286 10.9758C35.0691 10.3746 34.771 8.49749 34.7765 7.70549C35.0384 7.54977 35.337 7.46626 35.6417 7.46349L37.7603 7.46019C37.9789 7.4599 38.1884 7.37285 38.3429 7.21816C38.4974 7.06348 38.5842 6.8538 38.5842 6.63519V2.74999C38.5842 2.53118 38.4972 2.32134 38.3425 2.16662C38.1878 2.01191 37.978 1.92499 37.7592 1.92499H28.9471C24.9288 1.92499 21.6596 5.19419 21.6596 9.21249C21.6596 9.43129 21.7465 9.64113 21.9012 9.79585C22.0559 9.95057 22.2658 10.0375 22.4846 10.0375H25.2978V12.0026H24.4497C24.2309 12.0026 24.0211 12.0896 23.8663 12.2443C23.7116 12.399 23.6247 12.6088 23.6247 12.8276V16.9889H21.8669V15.9604C21.8669 13.9166 20.3715 12.2204 18.4184 11.8959V8.92099C18.4184 8.70218 18.3315 8.49234 18.1768 8.33762C18.0221 8.18291 17.8122 8.09599 17.5934 8.09599H17.1397L16.8658 3.48864C16.8533 3.27862 16.761 3.0813 16.6079 2.93705C16.4547 2.79279 16.2522 2.7125 16.0419 2.71259H11.2145C10.7778 2.71259 10.417 3.05304 10.3906 3.48864L10.1167 8.09599H9.66351C9.4447 8.09599 9.23486 8.18291 9.08014 8.33762C8.92543 8.49234 8.83851 8.70218 8.83851 8.92099V11.8959C6.88546 12.2204 5.39001 13.9172 5.39001 15.961V16.9895H2.73571C2.5169 16.9895 2.30706 17.0764 2.15234 17.2311C1.99763 17.3858 1.91071 17.5957 1.91071 17.8145V23.6582C1.91071 23.877 1.99763 24.0869 2.15234 24.2416C2.30706 24.3963 2.5169 24.4832 2.73571 24.4832H3.73781V47.8648C3.73781 50.738 6.06926 53.0755 8.93531 53.0755H51.1357C52.1972 53.0755 53.0607 52.212 53.0607 51.1505V46.5674C53.0604 46.057 52.8576 45.5675 52.4968 45.2065C52.136 44.8455 51.6467 44.6424 51.1363 44.6418ZM40.6307 41.8456C41.2737 41.8465 41.9049 42.0181 42.4597 42.3428C43.0146 42.6676 43.4733 43.134 43.7888 43.6942C43.849 43.8011 43.9323 43.8932 44.0325 43.9638C44.1328 44.0345 44.2475 44.0819 44.3684 44.1027C44.4893 44.1234 44.6133 44.117 44.7314 44.0838C44.8495 44.0506 44.9587 43.9916 45.0511 43.9109C45.2951 43.6983 45.5858 43.5461 45.8996 43.4669C46.2134 43.3876 46.5415 43.3834 46.8572 43.4545C47.173 43.5257 47.4675 43.6703 47.7169 43.8766C47.9663 44.0829 48.1636 44.3451 48.2928 44.6418H37.108C37.4831 43.0419 38.918 41.8456 40.6307 41.8456ZM22.9378 28.5884C22.719 28.5884 22.5091 28.6754 22.3544 28.8301C22.1997 28.9848 22.1128 29.1946 22.1128 29.4134V39.9558C22.1077 40.1357 22.0326 40.3066 21.9036 40.432C21.7746 40.5575 21.6017 40.6277 21.4217 40.6277C21.2417 40.6277 21.0688 40.5575 20.9398 40.432C20.8107 40.3066 20.7357 40.1357 20.7306 39.9558V29.4134C20.7306 29.1946 20.6437 28.9848 20.489 28.8301C20.3343 28.6754 20.1244 28.5884 19.9056 28.5884C19.6868 28.5884 19.477 28.6754 19.3222 28.8301C19.1675 28.9848 19.0806 29.1946 19.0806 29.4134V38.0138C19.0755 38.1937 19.0005 38.3645 18.8714 38.49C18.7424 38.6154 18.5695 38.6856 18.3895 38.6856C18.2096 38.6856 18.0367 38.6154 17.9076 38.49C17.7786 38.3645 17.7035 38.1937 17.6985 38.0138V29.4134C17.6985 29.1946 17.6115 28.9848 17.4568 28.8301C17.3021 28.6754 17.0923 28.5884 16.8735 28.5884C16.6547 28.5884 16.4448 28.6754 16.2901 28.8301C16.1354 28.9848 16.0485 29.1946 16.0485 29.4134V35.0999C16.0434 35.2798 15.9683 35.4506 15.8393 35.5761C15.7102 35.7015 15.5374 35.7717 15.3574 35.7717C15.1774 35.7717 15.0045 35.7015 14.8755 35.5761C14.7464 35.4506 14.6714 35.2798 14.6663 35.0999V18.6395H26.6613V26.7921C26.5649 26.6423 26.4225 26.5278 26.2555 26.4657C26.0885 26.4037 25.9059 26.3975 25.7351 26.4481C25.5642 26.4987 25.4144 26.6033 25.3081 26.7462C25.2018 26.8892 25.1447 27.0628 25.1455 27.2409V38.0138C25.1404 38.1937 25.0653 38.3645 24.9363 38.49C24.8073 38.6154 24.6344 38.6856 24.4544 38.6856C24.2744 38.6856 24.1015 38.6154 23.9725 38.49C23.8434 38.3645 23.7684 38.1937 23.7633 38.0138V29.4134C23.763 29.1946 23.6759 28.9849 23.5212 28.8302C23.3664 28.6755 23.1566 28.5886 22.9378 28.5884ZM28.3113 27.8976V24.4832H35.3595V35.7604L27.1277 29.92C27.8311 29.5157 28.3113 28.7655 28.3113 27.8976ZM37.1872 22.8332H28.3113V18.6395H37.1872V22.8332ZM36.9325 5.81074L35.8292 5.81239V3.57499H36.9325V5.81074ZM28.9471 3.57499H34.1792V6.15834C33.2811 6.59229 32.5958 7.40079 32.3488 8.38749H23.3695C23.7705 5.66884 26.119 3.57499 28.9471 3.57499ZM26.9478 10.0375H30.3853V12.0026H26.9478V10.0375ZM25.2753 13.6526H31.8219V16.9889H25.2753V13.6526ZM10.4885 9.74654H16.7684V11.836H10.4885V9.74654ZM11.9922 4.36314H15.2647L15.4869 8.09654H11.77L11.9922 4.36314ZM7.04001 15.961C7.04001 14.5964 8.15046 13.486 9.51501 13.486H17.7425C19.107 13.486 20.2175 14.5964 20.2175 15.961V16.9895H7.04001V15.961ZM3.56071 18.6395H13.0158V22.8332H3.56071V18.6395ZM5.38836 47.8643V24.4832H13.0163V35.1004C13.0167 35.7212 13.2635 36.3164 13.7024 36.7553C14.1412 37.1943 14.7364 37.4412 15.3571 37.4418C15.5991 37.4418 15.8285 37.3945 16.0485 37.3257V38.0143C16.049 38.635 16.2958 39.23 16.7347 39.6689C17.1736 40.1077 17.7686 40.3546 18.3893 40.3551C18.6417 40.3551 18.8804 40.3045 19.1081 40.2303C19.2456 41.3913 20.2241 42.2977 21.4214 42.2977C22.6188 42.2977 23.5972 41.3913 23.7347 40.2303C23.9624 40.3045 24.2011 40.3551 24.4536 40.3551C25.0742 40.3546 25.6694 40.1078 26.1083 39.6689C26.5473 39.2301 26.7942 38.635 26.7949 38.0143V31.7075L35.3595 37.7839V44.6418H30.008C28.9465 44.6418 28.083 45.5053 28.083 46.5668V51.15C28.083 51.244 28.0979 51.3342 28.1111 51.425H8.93586C6.97951 51.425 5.38836 49.8278 5.38836 47.8643ZM51.4113 51.15C51.4113 51.3012 51.2875 51.425 51.1363 51.425H30.008C29.9351 51.4248 29.8653 51.3958 29.8137 51.3443C29.7622 51.2927 29.7332 51.2229 29.733 51.15V46.5668C29.733 46.4156 29.8568 46.2918 30.008 46.2918H51.1363C51.2875 46.2918 51.4113 46.4156 51.4113 46.5668V51.15Z" fill="#F98F41"/>
<path d="M43.5677 32.1953C44.3453 32.1943 45.0907 31.885 45.6406 31.3351C46.1905 30.7853 46.4998 30.0398 46.5008 29.2622C46.5008 27.6446 45.1847 26.329 43.5677 26.329C41.9507 26.329 40.6345 27.6452 40.6345 29.2622C40.6355 30.0398 40.9449 30.7853 41.4947 31.3351C42.0446 31.885 42.7901 32.1943 43.5677 32.1953ZM43.5677 27.979C43.9078 27.9795 44.234 28.1148 44.4745 28.3553C44.7151 28.5959 44.8504 28.922 44.8508 29.2622C44.8508 29.9695 44.275 30.5453 43.5677 30.5453C42.8604 30.5453 42.2845 29.9695 42.2845 29.2622C42.285 28.922 42.4203 28.5959 42.6608 28.3553C42.9014 28.1148 43.2275 27.9795 43.5677 27.979ZM47.3154 23.007C50.4993 23.007 53.0893 20.4171 53.0893 17.2326C53.0893 14.0481 50.4993 11.4581 47.3154 11.4581C44.1314 11.4581 41.5409 14.0481 41.5409 17.2326C41.5409 20.4171 44.1314 23.007 47.3154 23.007ZM47.3154 13.1087C49.5896 13.1087 51.4393 14.9589 51.4393 17.2331C51.4393 19.5074 49.5896 21.3576 47.3154 21.3576C45.0411 21.3576 43.1909 19.5074 43.1909 17.2331C43.1909 14.9589 45.0411 13.1087 47.3154 13.1087Z" fill="#F98F41"/>
<path d="M47.3154 15.8587C47.6797 15.8593 48.0289 16.0043 48.2865 16.2619C48.544 16.5196 48.6889 16.8688 48.6893 17.2331C48.6893 17.4519 48.7762 17.6618 48.931 17.8165C49.0857 17.9712 49.2955 18.0581 49.5143 18.0581C49.7331 18.0581 49.943 17.9712 50.0977 17.8165C50.2524 17.6618 50.3393 17.4519 50.3393 17.2331C50.3384 16.4314 50.0196 15.6627 49.4527 15.0957C48.8858 14.5287 48.1172 14.2097 47.3154 14.2087C47.0966 14.2087 46.8868 14.2956 46.7321 14.4503C46.5773 14.605 46.4904 14.8149 46.4904 15.0337C46.4904 15.2525 46.5773 15.4623 46.7321 15.617C46.8868 15.7718 47.0966 15.8587 47.3154 15.8587Z" fill="#F98F41"/>
</svg>
